<?xml version="1.0" encoding="utf-8"?>
<!-- Generator: Adobe Illustrator 25.0.0, SVG Export Plug-In . SVG Version: 6.00 Build 0)  -->
<svg version="1.0" id="图层_1" xmlns="http://www.w3.org/2000/svg" xmlns:xlink="http://www.w3.org/1999/xlink" x="0px" y="0px"
	 viewBox="0 0 128 128" style="enable-background:new 0 0 128 128;" xml:space="preserve">
<g>
	<path d="M86.87,89.13c-1.01,1.41-1.95,2.9-3.12,4.17c-3.06,3.31-6.22,4.05-10.27,2.09c-4.48-2.17-9-3.85-14.07-3.97
		c-2.85-0.07-3.98-1.8-4.57-4.68c-0.47-2.29-1.22-4.69-2.48-6.63c-1.88-2.9-5.38-3.16-7.9-0.91c-8.37,7.47-16.71,14.98-25.02,22.51
		c-3.54,3.21-6.97,6.52-10.46,9.79c5.63-4.14,11.08-8.49,16.51-12.86c6.86-5.53,13.69-11.08,20.55-16.61c1.48-1.19,2.92-1,3.67,0.47
		c0.83,1.63,0.1,2.79-1.17,3.82c-6.8,5.5-13.58,11.02-20.36,16.54c-0.6,0.49-1.18,1.01-1.78,1.51c1.18-0.21,2.12-0.71,3.04-1.22
		c6.34-3.53,12.71-7.02,19.02-10.62c1.58-0.9,2.72-0.67,4.15,0.39c1.46,1.08,3.16,1.98,4.9,2.49c2.34,0.7,4.84,0.8,7.21,1.42
		c4.97,1.32,8.88,4.5,12.67,7.79c6.3,5.47,12.8,4.96,19.57,1.14c2.14-1.2,4.21-2.52,6.37-3.82c-0.28-4.11-2.65-10.27-5.41-13.19
		c-1.01-1.06-2.39-2.01-3.77-2.42C91.16,85.43,88.7,86.58,86.87,89.13z"/>
	<path d="M59.8,25.13c-2.87,4.85-3.66,10.27-4.4,15.72c-0.62,4.52-1.28,9.04-4.59,12.97c6.64,0.67,11.13-2.34,13.97-7.66
		c2.7-5.06,4.79-10.44,7.19-15.66c2.46-5.35,5.09-10.57,11.9-11.65C75.58,13.99,64.63,16.96,59.8,25.13z"/>
	<path d="M33.08,66.06c2.85-2.3,5.73-4.58,8.64-6.81c4.68-3.58,8.01-8.06,8.88-14.03c0.52-3.57,0.87-7.18,1.06-10.79
		c0.24-4.38,1.18-8.34,4.96-11.23c-1.06,0.32-2.17,0.54-3.18,0.97C44.87,27.79,39,34.02,35.81,42.8
		c-1.92,5.29-2.04,10.76-1.35,16.26c0.2,1.63,0.11,2.78-1.31,4.01c-2.04,1.78-3.86,3.89-5.45,6.1c-2.42,3.37-3.62,7.61-3.29,10.33
		C25.69,73.91,28.75,69.55,33.08,66.06z"/>
	<path d="M79.34,27.07c-3.09,4.32-5.59,9.06-8.62,14.05c3.89,0.77,7.21,0.89,10.23-0.81c3.94-2.21,7.74-4.67,11.57-7.07
		c3.24-2.03,6.53-4.02,10.48-3.96c2.17,0.03,4.33,0.63,6.56,0.98c-0.2-0.41-0.38-0.84-0.62-1.23
		C103.03,19.2,86.75,16.69,79.34,27.07z"/>
	<path d="M111.71,51.98c-1.61,0.4-3.26,0.61-4.91,0.83c-8.74,1.17-12.5,5.54-13.29,13.03c-0.9,8.56,2.87,15.56,8.43,22.16
		c1.61-8.18,2.72-9.56,7.75-14.17c1.16-1.07,2.04-2.69,2.52-4.22c1.3-4.11-1.68-7.49-5.59-7.07c0.74,0.35,1.92,0.67,2.81,1.36
		c1.58,1.22,1.9,3.19,1.1,5.1c-0.88,2.11-3.22,3.66-5.36,3.55c-2.06-0.11-4.1-1.74-4.62-3.85c-0.96-3.89,0.72-6.92,3.64-9.1
		c2.16-1.61,4.85-2.47,7.16-3.89c2.13-1.3,4.25-2.72,6.05-4.43c2.14-2.04,2.2-7.57-0.37-10c0.13,0.57,0.26,1.08,0.36,1.6
		C118.36,47.75,116.49,50.79,111.71,51.98z"/>
	<path d="M44.85,75.15c1.33-1.59,2.31-3.41,1.98-5.72c-0.38-0.05-0.52-0.11-0.63-0.07c-0.25,0.08-0.52,0.16-0.72,0.31
		c-2.56,1.94-5.53,2.8-8.63,3.36c-1.43,0.26-2.85,0.66-4.21,1.19c-3.28,1.27-5.52,4.78-5.01,7.89
		C34.34,82.21,40.34,80.54,44.85,75.15z"/>
	<path d="M84.42,54.54c0.7,2.43,0.81,5.02,1.4,7.49c0.69,2.89,1.6,5.72,2.42,8.57c-0.02-4.24-0.18-8.36-0.7-12.44
		c-0.34-2.62-0.86-5.33-1.9-7.74c-2.8-6.48-10.39-8.48-16.61-4.24c0.97-0.16,1.49-0.25,2.01-0.33
		C78.03,44.9,82.44,47.67,84.42,54.54z"/>
	<path d="M58.69,69.31c-1.67,0.83-2.6,2.25-2.83,4.08c-0.25,1.98,0.53,3.75,2.23,4.55c1.32,0.62,3.09,0.8,4.51,0.49
		c0.77-0.17,1.24-1.75,1.84-2.67c-0.6-1.92-0.95-3.56-1.62-5.06C61.99,68.84,60.5,68.41,58.69,69.31z"/>
</g>
</svg>
