<?xml version="1.0" encoding="UTF-8"?>
<svg width="980px" height="980px" viewBox="0 0 980 980" version="1.1" xmlns="http://www.w3.org/2000/svg" xmlns:xlink="http://www.w3.org/1999/xlink">
    <title>形状结合</title>
    <g id="平面" stroke="none" stroke-width="1" fill="none" fill-rule="evenodd">
        <g id="logo" transform="translate(-512.000000, -270.000000)" fill="#050507">
            <g id="编组" transform="translate(512.000000, 270.000000)">
                <path d="M490,0 C760.619527,0 980,219.380473 980,490 C980,506.880998 979.146358,523.562617 977.479885,540.004045 L817,540 L817,540.003 L816.236094,540.003539 C792.139537,698.528981 655.255307,820 490,820 C307.746033,820 160,672.253967 160,490 C160,307.746033 307.746033,160 490,160 C633.683963,160 755.920184,251.828702 801.22227,379.999712 L692.038017,379.996898 C653.029662,308.503492 577.17913,260 490,260 C362.974508,260 260,362.974508 260,490 C260,617.025492 362.974508,720 490,720 C617.025492,720 720,617.025492 720,490 C720,472.828088 718.118149,456.095706 714.549427,439.997833 L860,440 L860,439.998 L876.82461,439.998845 C852.280855,248.222258 688.450009,100 490,100 C274.608948,100 100,274.608948 100,490 C100,705.391052 274.608948,880 490,880 C667.191419,880 816.783434,761.832908 864.27055,600.00422 L967.604163,600.001479 C917.679316,817.654471 722.798573,980 490,980 C219.380473,980 0,760.619527 0,490 C0,219.380473 219.380473,0 490,0 Z" id="形状结合"></path>
            </g>
        </g>
    </g>
</svg>